<svg width="21" height="21" viewBox="0 0 21 21" fill="none" xmlns="http://www.w3.org/2000/svg">
<g clip-path="url(#clip0_779_349)">
<path d="M10.4798 5.42773C7.69118 5.42773 5.43359 7.68778 5.43359 10.4739C5.43359 13.2625 7.69364 15.5201 10.4798 15.5201C13.2684 15.5201 15.5259 13.26 15.5259 10.4739C15.5259 7.68532 13.2659 5.42773 10.4798 5.42773V5.42773ZM10.4798 13.7493C8.6696 13.7493 7.20443 12.2833 7.20443 10.4739C7.20443 8.66456 8.67042 7.19857 10.4798 7.19857C12.2891 7.19857 13.7551 8.66456 13.7551 10.4739C13.7559 12.2833 12.2899 13.7493 10.4798 13.7493V13.7493Z" fill="black"/>
<path d="M14.5308 0.70533C12.7215 0.620927 8.23989 0.625024 6.4289 0.70533C4.83753 0.7799 3.43381 1.16422 2.30215 2.29588C0.41086 4.18717 0.652598 6.73567 0.652598 10.4732C0.652598 14.2984 0.439541 16.7879 2.30215 18.6505C4.20082 20.5483 6.78618 20.3 10.4794 20.3C14.2686 20.3 15.5764 20.3025 16.9162 19.7838C18.7379 19.0766 20.1129 17.4483 20.2473 14.5237C20.3325 12.7136 20.3276 8.2328 20.2473 6.42182C20.085 2.96947 18.2323 0.875776 14.5308 0.70533V0.70533ZM17.3948 17.3992C16.155 18.639 14.4349 18.5284 10.4557 18.5284C6.35843 18.5284 4.71543 18.589 3.51658 17.3869C2.1358 16.0127 2.38574 13.8059 2.38574 10.4601C2.38574 5.9326 1.92111 2.67201 6.46496 2.43929C7.50894 2.40241 7.81623 2.39012 10.4442 2.39012L10.4811 2.4147C14.8479 2.4147 18.2741 1.95745 18.4797 6.50048C18.5264 7.53709 18.5371 7.84848 18.5371 10.4724C18.5363 14.5221 18.6133 16.1749 17.3948 17.3992V17.3992Z" fill="black"/>
<path d="M15.7241 6.40818C16.3754 6.40818 16.9033 5.88024 16.9033 5.22899C16.9033 4.57775 16.3754 4.0498 15.7241 4.0498C15.0729 4.0498 14.5449 4.57775 14.5449 5.22899C14.5449 5.88024 15.0729 6.40818 15.7241 6.40818Z" fill="black"/>
</g>
<defs>
<clipPath id="clip0_779_349">
<rect width="19.6668" height="19.6668" fill="white" transform="translate(0.642578 0.643555)"/>
</clipPath>
</defs>
</svg>
